<svg xmlns="http://www.w3.org/2000/svg" width="100%" height="100%" viewBox="0 0 384 384" version="1.1" class="iconadda">
<g>
<g id="Menu-burger_free_interface_icon_uTVd2QY-0"><path style=" stroke:none;fill-rule:nonzero;fill:#2E4343;fill-opacity:1;" d="M 16 176 L 368 176 C 376.835938 176 384 184.835938 384 192 C 384 200.835938 376.835938 208 368 208 L 16 208 C 7.164062 208 0 199.164062 0 192 C 0 183.164062 7.164062 176 16 176 Z M 16 176 " />
</g><g id="Menu-burger_free_interface_icon_uTVd2QY-1"><path style=" stroke:none;fill-rule:nonzero;fill:#2E4343;fill-opacity:1;" d="M 16 64 L 368 64 C 376.835938 64 384 72.835938 384 80 C 384 88.835938 376.835938 96 368 96 L 16 96 C 7.164062 96 0 87.164062 0 80 C 0 71.164062 7.164062 64 16 64 Z M 16 64 " />
</g><g id="Menu-burger_free_interface_icon_uTVd2QY-2"><path style=" stroke:none;fill-rule:nonzero;fill:#2E4343;fill-opacity:1;" d="M 16 288 L 368 288 C 376.835938 288 384 296.835938 384 304 C 384 312.835938 376.835938 320 368 320 L 16 320 C 7.164062 320 0 311.164062 0 304 C 0 295.164062 7.164062 288 16 288 Z M 16 288 " />
</g></g>
</svg>